<svg width="312" height="312" viewBox="0 0 312 312" fill="none" xmlns="http://www.w3.org/2000/svg">
<g filter="url(#filter0_dd_0_12)">
<circle cx="156.5" cy="156.5" r="141.5" fill="#052727"/>
</g>
<g filter="url(#filter1_dd_0_12)">
<circle cx="156" cy="156" r="118" fill="#036B52"/>
</g>
<path d="M67.9651 193.884C66.8381 194.111 65.6695 194.233 64.4593 194.25C63.2491 194.267 62.1 194.076 61.012 193.678C59.924 193.279 58.9681 192.566 58.1445 191.539C57.3209 190.511 56.7203 189.058 56.3428 187.18C56.2554 186.745 56.1679 186.31 56.0805 185.875C55.9891 185.42 55.8957 184.956 55.8004 184.481L52.8914 170.009L45.4476 171.505L44.1958 165.277L47.2208 164.669C48.2489 164.462 49.0516 164.26 49.6288 164.061C50.2021 163.843 50.5933 163.538 50.8026 163.147C51.0118 162.755 51.0844 162.195 51.0205 161.468C50.9723 160.716 50.819 159.698 50.5607 158.413L49.5533 153.401L57.3828 151.827L59.4691 162.207L68.8406 160.323L70.0924 166.551L60.7209 168.435L63.2602 181.069C63.3357 181.444 63.4112 181.82 63.4867 182.196C63.5582 182.552 63.6278 182.898 63.6953 183.234C63.9894 184.697 64.4038 185.837 64.9385 186.656C65.4732 187.474 66.4029 187.75 67.7276 187.483C68.3603 187.356 68.9415 187.178 69.4712 186.948C70.0208 186.714 70.422 186.51 70.675 186.336L71.9029 192.445C71.5551 192.659 71.0392 192.907 70.3552 193.188C69.6713 193.47 68.8746 193.702 67.9651 193.884ZM81.0608 190.635L74.7303 159.14L82.5301 157.572L84.6343 168.041L82.6225 167.396C82.546 165.992 82.6535 164.633 82.9449 163.32C83.2324 161.987 83.7295 160.776 84.4364 159.688C85.1394 158.58 86.0719 157.642 87.2339 156.873C88.3959 156.105 89.7876 155.558 91.4088 155.232C92.6939 154.974 93.7222 154.87 94.4934 154.92C95.2805 154.947 95.7749 155.002 95.9767 155.085L95.9898 162.519C95.7642 162.42 95.3251 162.333 94.6725 162.259C94.0356 162.161 93.213 162.213 92.2047 162.415C90.6032 162.737 89.3144 163.284 88.3383 164.056C87.3779 164.805 86.6748 165.707 86.2289 166.764C85.779 167.8 85.5269 168.9 85.4727 170.063C85.4145 171.206 85.4946 172.321 85.7132 173.409L88.8605 189.067L81.0608 190.635ZM118.632 183.701C116.398 184.15 114.464 184.148 112.83 183.694C111.216 183.237 109.861 182.481 108.765 181.426C107.688 180.367 106.822 179.132 106.168 177.721C105.534 176.305 105.068 174.856 104.77 173.373C104.623 172.642 104.47 171.881 104.311 171.09C104.152 170.299 103.991 169.498 103.828 168.688L100.854 153.889L108.683 152.315L111.413 165.898C111.556 166.61 111.694 167.292 111.825 167.944C111.956 168.597 112.079 169.21 112.194 169.783C112.476 171.187 112.907 172.458 113.485 173.596C114.06 174.715 114.865 175.551 115.902 176.104C116.959 176.652 118.307 176.762 119.948 176.432C121.51 176.118 122.763 175.393 123.708 174.257C124.648 173.101 125.283 171.76 125.614 170.233C125.965 168.702 125.995 167.215 125.705 165.772L128.731 167.015C129.117 168.932 129.184 170.801 128.933 172.621C128.677 174.42 128.117 176.086 127.253 177.617C126.388 179.149 125.23 180.451 123.78 181.524C122.345 182.574 120.629 183.299 118.632 183.701ZM128.775 181.045L122.444 149.549L130.244 147.982L136.574 179.477L128.775 181.045ZM166.354 173.492L163.546 159.523C163.387 158.732 163.248 158.04 163.129 157.447C163.006 156.834 162.895 156.281 162.795 155.787C162.509 154.363 162.045 153.129 161.404 152.086C160.778 151.019 159.905 150.258 158.785 149.804C157.685 149.347 156.275 149.291 154.555 149.636C153.052 149.938 151.791 150.572 150.772 151.538C149.749 152.485 149.028 153.658 148.61 155.059C148.208 156.435 148.172 157.944 148.502 159.585L145.534 158.485C145.006 155.855 145.13 153.403 145.907 151.128C146.7 148.829 147.987 146.894 149.769 145.322C151.552 143.75 153.668 142.718 156.12 142.225C158.651 141.717 160.876 141.784 162.794 142.426C164.733 143.065 166.32 144.207 167.556 145.851C168.811 147.491 169.685 149.537 170.178 151.989C170.368 152.938 170.583 154.005 170.821 155.192C171.06 156.378 171.294 157.544 171.525 158.691L174.183 171.918L166.354 173.492ZM144.082 177.968L137.751 146.473L145.551 144.905L151.881 176.401L144.082 177.968ZM185.5 169.643L180.421 144.376L173.748 145.717L172.497 139.489L179.169 138.148L178.603 135.33C178.233 133.492 178.157 131.831 178.373 130.347C178.585 128.844 179.019 127.523 179.674 126.383C180.33 125.244 181.141 124.268 182.11 123.456C183.094 122.621 184.181 121.939 185.371 121.412C186.58 120.881 187.808 120.49 189.054 120.24C190.24 120.002 191.153 119.89 191.794 119.905C192.455 119.916 192.903 119.95 193.141 120.005L194.405 126.292C194.151 126.261 193.718 126.255 193.105 126.275C192.508 126.272 191.873 126.338 191.201 126.473C189.995 126.715 189.032 127.094 188.313 127.609C187.59 128.104 187.072 128.702 186.761 129.402C186.449 130.102 186.285 130.876 186.27 131.722C186.251 132.549 186.337 133.437 186.528 134.386L186.969 136.58L195.688 134.828L196.94 141.056L188.221 142.808L193.3 168.076L185.5 169.643ZM221.376 163.08C218.055 163.748 214.99 163.644 212.181 162.769C209.368 161.874 206.991 160.336 205.051 158.154C203.131 155.969 201.851 153.285 201.211 150.102C200.567 146.899 200.713 143.938 201.648 141.22C202.598 138.478 204.2 136.161 206.452 134.269C208.705 132.376 211.492 131.096 214.813 130.428C218.135 129.761 221.2 129.864 224.009 130.74C226.818 131.615 229.181 133.135 231.097 135.301C233.029 137.443 234.317 140.115 234.961 143.318C235.6 146.501 235.447 149.474 234.501 152.235C233.574 154.993 231.986 157.328 229.738 159.24C227.485 161.133 224.698 162.413 221.376 163.08ZM220.095 156.704C221.894 156.343 223.382 155.611 224.56 154.511C225.737 153.41 226.553 152.043 227.006 150.409C227.455 148.755 227.477 146.92 227.072 144.904C226.667 142.887 225.941 141.223 224.896 139.911C223.847 138.579 222.568 137.643 221.061 137.102C219.553 136.562 217.9 136.472 216.101 136.834C214.322 137.192 212.831 137.913 211.63 138.998C210.448 140.079 209.631 141.436 209.178 143.07C208.721 144.684 208.695 146.499 209.1 148.516C209.505 150.533 210.235 152.217 211.288 153.568C212.337 154.9 213.618 155.846 215.129 156.406C216.66 156.963 218.315 157.062 220.095 156.704Z" fill="white"/>
<circle cx="156" cy="156" r="155.5" stroke="#2FC18C"/>
<path d="M129 192L266 164" stroke="#2FC18C" stroke-width="3" stroke-linecap="round"/>
<defs>
<filter id="filter0_dd_0_12" x="12" y="13" width="289" height="289" filterUnits="userSpaceOnUse" color-interpolation-filters="sRGB">
<feFlood flood-opacity="0" result="BackgroundImageFix"/>
<feColorMatrix in="SourceAlpha" type="matrix" values="0 0 0 0 0 0 0 0 0 0 0 0 0 0 0 0 0 0 127 0" result="hardAlpha"/>
<feOffset dy="1"/>
<feGaussianBlur stdDeviation="1.5"/>
<feColorMatrix type="matrix" values="0 0 0 0 0 0 0 0 0 0 0 0 0 0 0 0 0 0 0.1 0"/>
<feBlend mode="normal" in2="BackgroundImageFix" result="effect1_dropShadow_0_12"/>
<feColorMatrix in="SourceAlpha" type="matrix" values="0 0 0 0 0 0 0 0 0 0 0 0 0 0 0 0 0 0 127 0" result="hardAlpha"/>
<feOffset dy="1"/>
<feGaussianBlur stdDeviation="1"/>
<feColorMatrix type="matrix" values="0 0 0 0 0 0 0 0 0 0 0 0 0 0 0 0 0 0 0.06 0"/>
<feBlend mode="normal" in2="effect1_dropShadow_0_12" result="effect2_dropShadow_0_12"/>
<feBlend mode="normal" in="SourceGraphic" in2="effect2_dropShadow_0_12" result="shape"/>
</filter>
<filter id="filter1_dd_0_12" x="35" y="36" width="242" height="242" filterUnits="userSpaceOnUse" color-interpolation-filters="sRGB">
<feFlood flood-opacity="0" result="BackgroundImageFix"/>
<feColorMatrix in="SourceAlpha" type="matrix" values="0 0 0 0 0 0 0 0 0 0 0 0 0 0 0 0 0 0 127 0" result="hardAlpha"/>
<feOffset dy="1"/>
<feGaussianBlur stdDeviation="1.5"/>
<feColorMatrix type="matrix" values="0 0 0 0 0 0 0 0 0 0 0 0 0 0 0 0 0 0 0.1 0"/>
<feBlend mode="normal" in2="BackgroundImageFix" result="effect1_dropShadow_0_12"/>
<feColorMatrix in="SourceAlpha" type="matrix" values="0 0 0 0 0 0 0 0 0 0 0 0 0 0 0 0 0 0 127 0" result="hardAlpha"/>
<feOffset dy="1"/>
<feGaussianBlur stdDeviation="1"/>
<feColorMatrix type="matrix" values="0 0 0 0 0 0 0 0 0 0 0 0 0 0 0 0 0 0 0.06 0"/>
<feBlend mode="normal" in2="effect1_dropShadow_0_12" result="effect2_dropShadow_0_12"/>
<feBlend mode="normal" in="SourceGraphic" in2="effect2_dropShadow_0_12" result="shape"/>
</filter>
</defs>
</svg>
