<svg width="20" height="16" viewBox="0 0 20 16" fill="none" xmlns="http://www.w3.org/2000/svg">
<path fill-rule="evenodd" clip-rule="evenodd" d="M3.31762 12.5776C2.3512 11.1668 2.71237 9.23455 4.1231 8.26814L7.42304 6.00753L6.34925 4.44005L3.04931 6.70066C0.772347 8.26049 0.19032 11.3744 1.75014 13.6514C3.30996 15.9283 6.42388 16.5103 8.70084 14.9505L12.0008 12.6899L10.927 11.1224L7.62705 13.3831C6.21632 14.3495 4.28403 13.9883 3.31762 12.5776ZM7.26521 11.0854L13.8651 6.56421L12.7348 4.91423L6.13491 9.43546L7.26521 11.0854ZM7.99923 3.30975L11.2992 1.04913C13.5761 -0.510687 16.69 0.0713397 18.2499 2.3483C19.8097 4.62526 19.2277 7.73918 16.9507 9.299L13.6508 11.5596L12.577 9.99214L15.8769 7.73152C17.2876 6.76511 17.6488 4.83282 16.6824 3.42209C15.716 2.01137 13.7837 1.6502 12.373 2.61661L9.07302 4.87722L7.99923 3.30975Z" fill="white"/>
</svg>
